<svg width="32" height="32" viewBox="0 0 32 32" fill="none" xmlns="http://www.w3.org/2000/svg">
<path d="M23.7154 7.36523L6.24044 12.2871C6.09168 12.3278 5.95908 12.4133 5.86069 12.5321C5.76231 12.6508 5.70292 12.797 5.69062 12.9507C5.67832 13.1045 5.71371 13.2582 5.79197 13.3911C5.87022 13.524 5.98754 13.6296 6.12794 13.6934L14.1529 17.4902C14.3101 17.563 14.4364 17.6893 14.5092 17.8465L18.3061 25.8715C18.3699 26.0119 18.4754 26.1292 18.6083 26.2075C18.7412 26.2857 18.895 26.3211 19.0487 26.3088C19.2024 26.2965 19.3486 26.2371 19.4674 26.1387C19.5861 26.0403 19.6716 25.9077 19.7123 25.759L24.6342 8.28398C24.6715 8.15646 24.6738 8.02125 24.6409 7.89253C24.6079 7.76381 24.541 7.64632 24.447 7.55237C24.3531 7.45842 24.2356 7.39148 24.1069 7.35855C23.9782 7.32563 23.843 7.32793 23.7154 7.36523V7.36523Z" stroke="#1D1D1D" stroke-width="1.5" stroke-linecap="round" stroke-linejoin="round"/>
<path d="M14 18L24 8" stroke="#1D1D1D" stroke-width="1.5" stroke-linejoin="round"/>
</svg>
